<?xml version="1.0" standalone="no"?>
<!DOCTYPE svg PUBLIC "-//W3C//DTD SVG 20010904//EN"
 "http://www.w3.org/TR/2001/REC-SVG-20010904/DTD/svg10.dtd">
<svg version="1.0" xmlns="http://www.w3.org/2000/svg"
 width="188.000000pt" height="188.000000pt" viewBox="0 0 188.000000 188.000000"
 preserveAspectRatio="xMidYMid meet">
<metadata>
Created by potrace 1.14, written by Peter Selinger 2001-2017
</metadata>
<g transform="translate(0.000000,188.000000) scale(0.100000,-0.100000)"
fill="#000000" stroke="none">
<path d="M813 1844 c-18 -9 -43 -32 -55 -52 -21 -34 -21 -44 -23 -386 0 -193
1 -358 3 -366 3 -13 67 -15 521 -15 575 0 548 -3 591 68 19 30 20 52 20 352 0
295 -2 322 -19 351 -39 64 -40 64 -548 64 -399 0 -462 -3 -490 -16z"/>
<path d="M227 1579 c-226 -52 -300 -336 -125 -484 71 -60 107 -69 296 -70 151
-2 172 0 173 14 6 93 2 287 -7 329 -32 149 -187 246 -337 211z"/>
<path d="M85 845 c-77 -39 -78 -44 -77 -405 0 -358 0 -358 73 -399 38 -22 44
-22 506 -19 450 3 469 4 495 23 61 46 60 43 61 441 0 200 -3 368 -7 372 -4 4
-233 7 -509 7 -483 0 -503 0 -542 -20z"/>
<path d="M1304 855 c-2 -5 -2 -84 -1 -175 4 -190 14 -225 86 -297 138 -138
376 -94 458 84 69 149 -11 330 -166 379 -63 20 -371 27 -377 9z"/>
</g>
</svg>
